/videos/9c0a9fc7-d4a8-f2fd-639b-5b5e428e1aca/hls1/main/0.ts

{"Protocol":0,"Id":"9c0a9fc7d4a8f2fd639b5b5e428e1aca","Path":"/data/tvshows/Little Britain/Season 1/Little Britain - S01E01 - Bath of Beans DVD.mp4","EncoderPath":null,"EncoderProtocol":null,"Type":0,"Container":"mov,mp4,m4a,3gp,3g2,mj2","Size":148866961,"Name":"Little Britain - S01E01 - Bath of Beans DVD","IsRemote":false,"ETag":"60614563f71863eddb7c17ee496b1028","RunTimeTicks":17102400000,"ReadAtNativeFramerate":false,"IgnoreDts":false,"IgnoreIndex":false,"GenPtsInput":false,"SupportsTranscoding":true,"SupportsDirectStream":true,"SupportsDirectPlay":true,"IsInfiniteStream":false,"RequiresOpening":false,"OpenToken":null,"RequiresClosing":false,"LiveStreamId":null,"BufferMs":null,"RequiresLooping":false,"SupportsProbing":true,"VideoType":0,"IsoType":null,"Video3DFormat":null,"MediaStreams":[{"Codec":"hevc","CodecTag":"hvc1","Language":"und","ColorRange":null,"ColorSpace":"smpte170m","ColorTransfer":"bt709","ColorPrimaries":"bt470bg","DvVersionMajor":null,"DvVersionMinor":null,"DvProfile":null,"DvLevel":null,"RpuPresentFlag":null,"ElPresentFlag":null,"BlPresentFlag":null,"DvBlSignalCompatibilityId":null,"Comment":null,"TimeBase":"1/90000","CodecTimeBase":null,"Title":null,"VideoRange":"SDR","VideoRangeType":"SDR","VideoDoViTitle":null,"LocalizedUndefined":null,"LocalizedDefault":null,"LocalizedForced":null,"LocalizedExternal":null,"DisplayTitle":"404p HEVC SDR","NalLengthSize":null,"IsInterlaced":false,"IsAVC":null,"ChannelLayout":null,"BitRate":593964,"BitDepth":8,"RefFrames":1,"PacketLength":null,"Channels":null,"SampleRate":null,"IsDefault":true,"IsForced":false,"Height":400,"Width":710,"AverageFrameRate":25,"RealFrameRate":25,"Profile":"Main","Type":1,"AspectRatio":"16:9","Index":0,"Score":null,"IsExternal":false,"DeliveryMethod":null,"DeliveryUrl":null,"IsExternalUrl":null,"IsTextSubtitleStream":false,"SupportsExternalStream":false,"Path":null,"PixelFormat":"yuv420p","Level":90,"IsAnamorphic":null},{"Codec":"aac","CodecTag":"mp4a","Language":"eng","ColorRange":null,"ColorSpace":null,"ColorTransfer":null,"ColorPrimaries":null,"DvVersionMajor":null,"DvVersionMinor":null,"DvProfile":null,"DvLevel":null,"RpuPresentFlag":null,"ElPresentFlag":null,"BlPresentFlag":null,"DvBlSignalCompatibilityId":null,"Comment":null,"TimeBase":"1/48000","CodecTimeBase":null,"Title":"Stereo","VideoRange":null,"VideoRangeType":null,"VideoDoViTitle":null,"LocalizedUndefined":null,"LocalizedDefault":null,"LocalizedForced":null,"LocalizedExternal":null,"DisplayTitle":"Stereo - English - AAC - Default","NalLengthSize":null,"IsInterlaced":false,"IsAVC":null,"ChannelLayout":"stereo","BitRate":96383,"BitDepth":null,"RefFrames":null,"PacketLength":null,"Channels":2,"SampleRate":48000,"IsDefault":true,"IsForced":false,"Height":null,"Width":null,"AverageFrameRate":null,"RealFrameRate":null,"Profile":"LC","Type":0,"AspectRatio":null,"Index":1,"Score":null,"IsExternal":false,"DeliveryMethod":null,"DeliveryUrl":null,"IsExternalUrl":null,"IsTextSubtitleStream":false,"SupportsExternalStream":false,"Path":null,"PixelFormat":null,"Level":0,"IsAnamorphic":null}],"MediaAttachments":[],"Formats":[],"Bitrate":696355,"Timestamp":null,"RequiredHttpHeaders":{},"TranscodingUrl":null,"TranscodingSubProtocol":null,"TranscodingContainer":null,"AnalyzeDurationMs":null,"DefaultAudioStreamIndex":null,"DefaultSubtitleStreamIndex":null}

/usr/lib/jellyfin-ffmpeg/ffmpeg -analyzeduration 200M -f mov,mp4,m4a,3gp,3g2,mj2 -autorotate 0 -i file:"/data/tvshows/Little Britain/Season 1/Little Britain - S01E01 - Bath of Beans DVD.mp4" -map_metadata -1 -map_chapters -1 -threads 0 -map 0:0 -map 0:1 -map -0:s -codec:v:0 libx264 -preset veryfast -crf 23 -maxrate 3712275 -bufsize 7424550 -x264opts:0 subme=0:me_range=4:rc_lookahead=10:me=dia:no_chroma_me:8x8dct=0:partitions=none -force_key_frames:0 "expr:gte(t,0+n_forced*3)" -sc_threshold:v:0 0 -vf "setparams=color_primaries=bt709:color_trc=bt709:colorspace=bt709,scale=trunc(min(max(iw\,ih*a)\,min(710\,400*a))/2)*2:trunc(min(max(iw/a\,ih)\,min(710/a\,400))/2)*2,format=yuv420p" -codec:a:0 copy -copyts -avoid_negative_ts disabled -max_muxing_queue_size 2048 -f hls -max_delay 5000000 -hls_time 3 -hls_segment_type mpegts -start_number 0 -hls_segment_filename "/config/data/transcodes/ea9cb613b228735b76ad871ec2a04e37%d.ts" -hls_playlist_type vod -hls_list_size 0 -y "/config/data/transcodes/ea9cb613b228735b76ad871ec2a04e37.m3u8"


ffmpeg version 5.1.3-Jellyfin Copyright (c) 2000-2022 the FFmpeg developers
  built with gcc 11 (Ubuntu 11.3.0-1ubuntu1~22.04.1)
  configuration: --prefix=/usr/lib/jellyfin-ffmpeg --target-os=linux --extra-libs=-lfftw3f --extra-version=Jellyfin --disable-doc --disable-ffplay --disable-ptx-compression --disable-static --disable-libxcb --disable-sdl2 --disable-xlib --enable-lto --enable-gpl --enable-version3 --enable-shared --enable-gmp --enable-gnutls --enable-chromaprint --enable-libdrm --enable-libass --enable-libfreetype --enable-libfribidi --enable-libfontconfig --enable-libbluray --enable-libmp3lame --enable-libopus --enable-libtheora --enable-libvorbis --enable-libopenmpt --enable-libdav1d --enable-libwebp --enable-libvpx --enable-libx264 --enable-libx265 --enable-libzvbi --enable-libzimg --enable-libfdk-aac --arch=amd64 --enable-libsvtav1 --enable-libshaderc --enable-libplacebo --enable-vulkan --enable-opencl --enable-vaapi --enable-amf --enable-libmfx --enable-ffnvcodec --enable-cuda --enable-cuda-llvm --enable-cuvid --enable-nvdec --enable-nvenc
  libavutil      57. 28.100 / 57. 28.100
  libavcodec     59. 37.100 / 59. 37.100
  libavformat    59. 27.100 / 59. 27.100
  libavdevice    59.  7.100 / 59.  7.100
  libavfilter     8. 44.100 /  8. 44.100
  libswscale      6.  7.100 /  6.  7.100
  libswresample   4.  7.100 /  4.  7.100
  libpostproc    56.  6.100 / 56.  6.100
Input #0, mov,mp4,m4a,3gp,3g2,mj2, from 'file:/data/tvshows/Little Britain/Season 1/Little Britain - S01E01 - Bath of Beans DVD.mp4':
  Metadata:
    major_brand     : isom
    minor_version   : 512
    compatible_brands: isomiso2avc1mp41
    encoder         : Lavf60.3.100
  Duration: 00:28:30.24, start: 0.000000, bitrate: 657 kb/s
  Stream #0:0[0x1](und): Video: h264 (High) (avc1 / 0x31637661), yuv420p(tv, smpte170m/bt470bg/bt709, progressive), 710x400 [SAR 1:1 DAR 71:40], 522 kb/s, 25 fps, 25 tbr, 12800 tbn (default)
    Metadata:
      handler_name    : VideoHandler
      vendor_id       : [0][0][0][0]
      encoder         : Lavc60.3.100 libx264
  Stream #0:1[0x2](eng): Audio: aac (LC) (mp4a / 0x6134706D), 48000 Hz, stereo, fltp, 129 kb/s (default)
    Metadata:
      handler_name    : Stereo
      vendor_id       : [0][0][0][0]
Stream mapping:
  Stream #0:0 -> #0:0 (h264 (native) -> h264 (libx264))
  Stream #0:1 -> #0:1 (copy)
Press [q] to stop, [?] for help
[libx264 @ 0x565164a39840] using SAR=1/1
[libx264 @ 0x565164a39840] using cpu capabilities: MMX2 SSE2Fast SSSE3 SSE4.2 AVX FMA3 BMI2 AVX2
[libx264 @ 0x565164a39840] profile Main, level 3.0, 4:2:0, 8-bit
[libx264 @ 0x565164a39840] 264 - core 163 r3060 5db6aa6 - H.264/MPEG-4 AVC codec - Copyleft 2003-2021 - http://www.videolan.org/x264.html - options: cabac=1 ref=1 deblock=1:0:0 analyse=0x1:0 me=dia subme=0 psy=1 psy_rd=1.00:0.00 mixed_ref=0 me_range=4 chroma_me=0 trellis=0 8x8dct=0 cqm=0 deadzone=21,11 fast_pskip=1 chroma_qp_offset=0 threads=6 lookahead_threads=1 sliced_threads=0 nr=0 decimate=1 interlaced=0 bluray_compat=0 constrained_intra=0 bframes=3 b_pyramid=2 b_adapt=1 b_bias=0 direct=1 weightb=1 open_gop=0 weightp=1 keyint=250 keyint_min=25 scenecut=0 intra_refresh=0 rc_lookahead=10 rc=crf mbtree=1 crf=23.0 qcomp=0.60 qpmin=0 qpmax=69 qpstep=4 vbv_maxrate=3712 vbv_bufsize=7424 crf_max=0.0 nal_hrd=none filler=0 ip_ratio=1.40 aq=1:1.00
Output #0, hls, to '/config/data/transcodes/ea9cb613b228735b76ad871ec2a04e37.m3u8':
  Metadata:
    encoder         : Lavf59.27.100
  Stream #0:0: Video: h264, yuv420p(tv, bt709, progressive), 710x400 [SAR 1:1 DAR 71:40], q=2-31, 25 fps, 90k tbn (default)
    Metadata:
      encoder         : Lavc59.37.100 libx264
    Side data:
      cpb: bitrate max/min/avg: 3712000/0/0 buffer size: 7424000 vbv_delay: N/A
  Stream #0:1: Audio: aac (LC) (mp4a / 0x6134706D), 48000 Hz, stereo, fltp, 129 kb/s (default)
frame=    1 fps=0.0 q=0.0 size=N/A time=00:00:00.00 bitrate=N/A speed=   0x    
frame=    1 fps=0.0 q=0.0 size=N/A time=00:00:00.02 bitrate=N/A speed=0.0364x    
frame=    7 fps=6.2 q=0.0 size=N/A time=00:00:00.25 bitrate=N/A speed=0.228x    
frame=   13 fps=7.7 q=0.0 size=N/A time=00:00:00.49 bitrate=N/A speed=0.289x    
frame=   17 fps=7.7 q=0.0 size=N/A time=00:00:00.66 bitrate=N/A speed=0.299x    
frame=   42 fps= 15 q=28.0 size=N/A time=00:00:01.66 bitrate=N/A speed=0.614x    
[hls @ 0x56516497a480] Opening '/config/data/transcodes/ea9cb613b228735b76ad871ec2a04e370.ts' for writing
frame=   96 fps= 30 q=28.0 size=N/A time=00:00:03.81 bitrate=N/A speed=1.19x    
frame=  148 fps= 40 q=28.0 size=N/A time=00:00:05.90 bitrate=N/A speed=1.59x    
[hls @ 0x56516497a480] Opening '/config/data/transcodes/ea9cb613b228735b76ad871ec2a04e371.ts' for writing
frame=  189 fps= 45 q=28.0 size=N/A time=00:00:07.53 bitrate=N/A speed=1.78x    
frame=  241 fps= 51 q=25.0 size=N/A time=00:00:09.62 bitrate=N/A speed=2.04x    
[hls @ 0x56516497a480] Opening '/config/data/transcodes/ea9cb613b228735b76ad871ec2a04e372.ts' for writing
frame=  267 fps= 50 q=28.0 size=N/A time=00:00:10.66 bitrate=N/A speed=2.01x    
frame=  305 fps= 53 q=28.0 size=N/A time=00:00:12.18 bitrate=N/A speed= 2.1x    
[hls @ 0x56516497a480] Opening '/config/data/transcodes/ea9cb613b228735b76ad871ec2a04e373.ts' for writing
frame=  326 fps= 52 q=28.0 size=N/A time=00:00:13.01 bitrate=N/A speed=2.06x    
frame=  363 fps= 53 q=28.0 size=N/A time=00:00:14.50 bitrate=N/A speed=2.13x    
frame=  384 fps= 52 q=28.0 size=N/A time=00:00:15.33 bitrate=N/A speed= 2.1x    
[hls @ 0x56516497a480] Opening '/config/data/transcodes/ea9cb613b228735b76ad871ec2a04e374.ts' for writing
frame=  407 fps= 52 q=28.0 size=N/A time=00:00:16.25 bitrate=N/A speed=2.08x    
frame=  429 fps= 52 q=28.0 size=N/A time=00:00:17.13 bitrate=N/A speed=2.06x    
frame=  457 fps= 51 q=28.0 size=N/A time=00:00:18.26 bitrate=N/A speed=2.05x    
[hls @ 0x56516497a480] Opening '/config/data/transcodes/ea9cb613b228735b76ad871ec2a04e375.ts' for writing
frame=  500 fps= 53 q=28.0 size=N/A time=00:00:19.98 bitrate=N/A speed=2.12x    
frame=  542 fps= 55 q=28.0 size=N/A time=00:00:21.65 bitrate=N/A speed=2.18x    
[hls @ 0x56516497a480] Opening '/config/data/transcodes/ea9cb613b228735b76ad871ec2a04e376.ts' for writing
frame=  571 fps= 55 q=28.0 size=N/A time=00:00:22.82 bitrate=N/A speed=2.19x    
frame=  605 fps= 55 q=28.0 size=N/A time=00:00:24.17 bitrate=N/A speed=2.21x    
[hls @ 0x56516497a480] Opening '/config/data/transcodes/ea9cb613b228735b76ad871ec2a04e377.ts' for writing
frame=  656 fps= 57 q=28.0 size=N/A time=00:00:26.21 bitrate=N/A speed=2.29x    
frame=  682 fps= 57 q=28.0 size=N/A time=00:00:27.26 bitrate=N/A speed=2.28x    
[hls @ 0x56516497a480] Opening '/config/data/transcodes/ea9cb613b228735b76ad871ec2a04e378.ts' for writing
frame=  719 fps= 58 q=28.0 size=N/A time=00:00:28.73 bitrate=N/A speed=2.31x    
frame=  760 fps= 58 q=28.0 size=N/A time=00:00:30.37 bitrate=N/A speed=2.33x    
[hls @ 0x56516497a480] Opening '/config/data/transcodes/ea9cb613b228735b76ad871ec2a04e379.ts' for writing
frame=  779 fps= 57 q=28.0 size=N/A time=00:00:31.14 bitrate=N/A speed=2.28x    
frame=  795 fps= 56 q=28.0 size=N/A time=00:00:31.78 bitrate=N/A speed=2.25x    
frame=  823 fps= 56 q=28.0 size=N/A time=00:00:32.89 bitrate=N/A speed=2.24x    
frame=  841 fps= 55 q=25.0 size=N/A time=00:00:33.62 bitrate=N/A speed= 2.2x    
[hls @ 0x56516497a480] Opening '/config/data/transcodes/ea9cb613b228735b76ad871ec2a04e3710.ts' for writing
frame=  861 fps= 55 q=28.0 size=N/A time=00:00:34.41 bitrate=N/A speed=2.18x    
frame=  880 fps= 54 q=28.0 size=N/A time=00:00:35.17 bitrate=N/A speed=2.16x    
frame=  905 fps= 54 q=28.0 size=N/A time=00:00:36.18 bitrate=N/A speed=2.16x    
[hls @ 0x56516497a480] Opening '/config/data/transcodes/ea9cb613b228735b76ad871ec2a04e3711.ts' for writing
frame=  921 fps= 53 q=28.0 size=N/A time=00:00:36.82 bitrate=N/A speed=2.12x    
frame=  948 fps= 53 q=28.0 size=N/A time=00:00:37.90 bitrate=N/A speed=2.12x    
frame=  964 fps= 52 q=28.0 size=N/A time=00:00:38.54 bitrate=N/A speed= 2.1x    
frame=  987 fps= 52 q=28.0 size=N/A time=00:00:39.46 bitrate=N/A speed=2.08x    
[hls @ 0x56516497a480] Opening '/config/data/transcodes/ea9cb613b228735b76ad871ec2a04e3712.ts' for writing
frame= 1004 fps= 52 q=28.0 size=N/A time=00:00:40.14 bitrate=N/A speed=2.06x    
frame= 1027 fps= 51 q=28.0 size=N/A time=00:00:41.06 bitrate=N/A speed=2.05x    
frame= 1048 fps= 51 q=28.0 size=N/A time=00:00:41.89 bitrate=N/A speed=2.04x    
[hls @ 0x56516497a480] Opening '/config/data/transcodes/ea9cb613b228735b76ad871ec2a04e3713.ts' for writing
frame= 1075 fps= 51 q=28.0 size=N/A time=00:00:42.98 bitrate=N/A speed=2.05x    
frame= 1095 fps= 51 q=28.0 size=N/A time=00:00:43.77 bitrate=N/A speed=2.03x    
frame= 1118 fps= 51 q=28.0 size=N/A time=00:00:44.69 bitrate=N/A speed=2.02x    
frame= 1140 fps= 50 q=28.0 size=N/A time=00:00:45.58 bitrate=N/A speed=2.01x    
[hls @ 0x56516497a480] Opening '/config/data/transcodes/ea9cb613b228735b76ad871ec2a04e3714.ts' for writing
frame= 1167 fps= 50 q=28.0 size=N/A time=00:00:46.65 bitrate=N/A speed=2.01x    
frame= 1202 fps= 51 q=28.0 size=N/A time=00:00:48.06 bitrate=N/A speed=2.03x    
[hls @ 0x56516497a480] Opening '/config/data/transcodes/ea9cb613b228735b76ad871ec2a04e3715.ts' for writing
frame= 1228 fps= 51 q=28.0 size=N/A time=00:00:49.10 bitrate=N/A speed=2.03x    
frame= 1267 fps= 51 q=28.0 size=N/A time=00:00:50.66 bitrate=N/A speed=2.05x    
[hls @ 0x56516497a480] Opening '/config/data/transcodes/ea9cb613b228735b76ad871ec2a04e3716.ts' for writing
frame= 1302 fps= 52 q=28.0 size=N/A time=00:00:52.05 bitrate=N/A speed=2.07x    
frame= 1352 fps= 53 q=28.0 size=N/A time=00:00:54.05 bitrate=N/A speed= 2.1x    
[hls @ 0x56516497a480] Opening '/config/data/transcodes/ea9cb613b228735b76ad871ec2a04e3717.ts' for writing
frame= 1385 fps= 53 q=28.0 size=N/A time=00:00:55.38 bitrate=N/A speed=2.11x    
frame= 1410 fps= 53 q=28.0 size=N/A time=00:00:56.38 bitrate=N/A speed= 2.1x    
frame= 1433 fps= 52 q=28.0 size=N/A time=00:00:57.30 bitrate=N/A speed= 2.1x    
[hls @ 0x56516497a480] Opening '/config/data/transcodes/ea9cb613b228735b76ad871ec2a04e3718.ts' for writing
frame= 1507 fps= 54 q=28.0 size=N/A time=00:01:00.26 bitrate=N/A speed=2.17x    
[hls @ 0x56516497a480] Opening '/config/data/transcodes/ea9cb613b228735b76ad871ec2a04e3719.ts' for writing
[hls @ 0x56516497a480] Opening '/config/data/transcodes/ea9cb613b228735b76ad871ec2a04e3720.ts' for writing
frame= 1603 fps= 57 q=28.0 size=N/A time=00:01:04.10 bitrate=N/A speed=2.27x    
[hls @ 0x56516497a480] Opening '/config/data/transcodes/ea9cb613b228735b76ad871ec2a04e3721.ts' for writing
frame= 1728 fps= 60 q=28.0 size=N/A time=00:01:09.09 bitrate=N/A speed= 2.4x    
[hls @ 0x56516497a480] Opening '/config/data/transcodes/ea9cb613b228735b76ad871ec2a04e3722.ts' for writing
frame= 1800 fps= 61 q=28.0 size=N/A time=00:01:11.97 bitrate=N/A speed=2.46x    
[hls @ 0x56516497a480] Opening '/config/data/transcodes/ea9cb613b228735b76ad871ec2a04e3723.ts' for writing
frame= 1821 fps= 61 q=28.0 size=N/A time=00:01:12.81 bitrate=N/A speed=2.44x    
frame= 1850 fps= 61 q=28.0 size=N/A time=00:01:13.98 bitrate=N/A speed=2.43x    
[hls @ 0x56516497a480] Opening '/config/data/transcodes/ea9cb613b228735b76ad871ec2a04e3724.ts' for writing
frame= 1910 fps= 62 q=28.0 size=N/A time=00:01:16.37 bitrate=N/A speed=2.47x    
[hls @ 0x56516497a480] Opening '/config/data/transcodes/ea9cb613b228735b76ad871ec2a04e3725.ts' for writing
frame= 1979 fps= 63 q=28.0 size=N/A time=00:01:19.14 bitrate=N/A speed=2.52x    
frame= 2043 fps= 64 q=28.0 size=N/A time=00:01:21.70 bitrate=N/A speed=2.56x    
[hls @ 0x56516497a480] Opening '/config/data/transcodes/ea9cb613b228735b76ad871ec2a04e3726.ts' for writing
frame= 2101 fps= 65 q=28.0 size=N/A time=00:01:24.01 bitrate=N/A speed=2.59x    
[hls @ 0x56516497a480] Opening '/config/data/transcodes/ea9cb613b228735b76ad871ec2a04e3727.ts' for writing
[hls @ 0x56516497a480] Opening '/config/data/transcodes/ea9cb613b228735b76ad871ec2a04e3728.ts' for writing
frame= 2210 fps= 67 q=28.0 size=N/A time=00:01:28.38 bitrate=N/A speed=2.68x    
[hls @ 0x56516497a480] Opening '/config/data/transcodes/ea9cb613b228735b76ad871ec2a04e3729.ts' for writing
frame= 2333 fps= 70 q=28.0 size=N/A time=00:01:33.29 bitrate=N/A speed=2.79x    
[hls @ 0x56516497a480] Opening '/config/data/transcodes/ea9cb613b228735b76ad871ec2a04e3730.ts' for writing
[hls @ 0x56516497a480] Opening '/config/data/transcodes/ea9cb613b228735b76ad871ec2a04e3731.ts' for writing
frame= 2443 fps= 72 q=28.0 size=N/A time=00:01:37.70 bitrate=N/A speed=2.88x    
[hls @ 0x56516497a480] Opening '/config/data/transcodes/ea9cb613b228735b76ad871ec2a04e3732.ts' for writing
frame= 2536 fps= 74 q=28.0 size=N/A time=00:01:41.41 bitrate=N/A speed=2.95x    
[hls @ 0x56516497a480] Opening '/config/data/transcodes/ea9cb613b228735b76ad871ec2a04e3733.ts' for writing
frame= 2621 fps= 75 q=28.0 size=N/A time=00:01:44.83 bitrate=N/A speed=   3x    
[hls @ 0x56516497a480] Opening '/config/data/transcodes/ea9cb613b228735b76ad871ec2a04e3734.ts' for writing
frame= 2720 fps= 77 q=28.0 size=N/A time=00:01:48.77 bitrate=N/A speed=3.07x    
[hls @ 0x56516497a480] Opening '/config/data/transcodes/ea9cb613b228735b76ad871ec2a04e3735.ts' for writing
[hls @ 0x56516497a480] Opening '/config/data/transcodes/ea9cb613b228735b76ad871ec2a04e3736.ts' for writing
frame= 2810 fps= 78 q=28.0 size=N/A time=00:01:52.38 bitrate=N/A speed=3.13x    
[hls @ 0x56516497a480] Opening '/config/data/transcodes/ea9cb613b228735b76ad871ec2a04e3737.ts' for writing
frame= 2919 fps= 80 q=28.0 size=N/A time=00:01:56.73 bitrate=N/A speed= 3.2x    
[hls @ 0x56516497a480] Opening '/config/data/transcodes/ea9cb613b228735b76ad871ec2a04e3738.ts' for writing
[hls @ 0x56516497a480] Opening '/config/data/transcodes/ea9cb613b228735b76ad871ec2a04e3739.ts' for writing
frame= 3061 fps= 83 q=28.0 size=N/A time=00:02:02.41 bitrate=N/A speed=3.31x    
[hls @ 0x56516497a480] Opening '/config/data/transcodes/ea9cb613b228735b76ad871ec2a04e3740.ts' for writing
frame= 3147 fps= 84 q=28.0 size=N/A time=00:02:05.86 bitrate=N/A speed=3.36x    
[hls @ 0x56516497a480] Opening '/config/data/transcodes/ea9cb613b228735b76ad871ec2a04e3741.ts' for writing
frame= 3234 fps= 85 q=28.0 size=N/A time=00:02:09.34 bitrate=N/A speed=3.41x    
[hls @ 0x56516497a480] Opening '/config/data/transcodes/ea9cb613b228735b76ad871ec2a04e3742.ts' for writing
frame= 3298 fps= 86 q=28.0 size=N/A time=00:02:11.90 bitrate=N/A speed=3.43x    
[hls @ 0x56516497a480] Opening '/config/data/transcodes/ea9cb613b228735b76ad871ec2a04e3743.ts' for writing
[hls @ 0x56516497a480] Opening '/config/data/transcodes/ea9cb613b228735b76ad871ec2a04e3744.ts' for writing
frame= 3418 fps= 88 q=28.0 size=N/A time=00:02:16.70 bitrate=N/A speed=3.51x    
[hls @ 0x56516497a480] Opening '/config/data/transcodes/ea9cb613b228735b76ad871ec2a04e3745.ts' for writing
frame= 3539 fps= 90 q=28.0 size=N/A time=00:02:21.54 bitrate=N/A speed=3.59x    
[hls @ 0x56516497a480] Opening '/config/data/transcodes/ea9cb613b228735b76ad871ec2a04e3746.ts' for writing
frame= 3605 fps= 90 q=28.0 size=N/A time=00:02:24.17 bitrate=N/A speed=3.61x    
[hls @ 0x56516497a480] Opening '/config/data/transcodes/ea9cb613b228735b76ad871ec2a04e3747.ts' for writing
frame= 3624 fps= 90 q=28.0 size=N/A time=00:02:24.93 bitrate=N/A speed=3.58x    
frame= 3673 fps= 90 q=28.0 size=N/A time=00:02:26.90 bitrate=N/A speed=3.59x    
[hls @ 0x56516497a480] Opening '/config/data/transcodes/ea9cb613b228735b76ad871ec2a04e3748.ts' for writing
frame= 3749 fps= 90 q=28.0 size=N/A time=00:02:29.93 bitrate=N/A speed=3.61x    
[hls @ 0x56516497a480] Opening '/config/data/transcodes/ea9cb613b228735b76ad871ec2a04e3749.ts' for writing
frame= 3841 fps= 91 q=25.0 size=N/A time=00:02:33.62 bitrate=N/A speed=3.66x    
[hls @ 0x56516497a480] Opening '/config/data/transcodes/ea9cb613b228735b76ad871ec2a04e3750.ts' for writing
[hls @ 0x56516497a480] Opening '/config/data/transcodes/ea9cb613b228735b76ad871ec2a04e3751.ts' for writing
frame= 3941 fps= 93 q=28.0 size=N/A time=00:02:37.61 bitrate=N/A speed=3.71x    
[hls @ 0x56516497a480] Opening '/config/data/transcodes/ea9cb613b228735b76ad871ec2a04e3752.ts' for writing
frame= 4028 fps= 94 q=28.0 size=N/A time=00:02:41.10 bitrate=N/A speed=3.75x    
frame= 4046 fps= 93 q=28.0 size=N/A time=00:02:41.81 bitrate=N/A speed=3.72x    
[hls @ 0x56516497a480] Opening '/config/data/transcodes/ea9cb613b228735b76ad871ec2a04e3753.ts' for writing
frame= 4071 fps= 92 q=28.0 size=N/A time=00:02:42.81 bitrate=N/A speed=3.69x    
frame= 4099 fps= 92 q=28.0 size=N/A time=00:02:43.94 bitrate=N/A speed=3.67x    
frame= 4129 fps= 91 q=28.0 size=N/A time=00:02:45.14 bitrate=N/A speed=3.66x    
[hls @ 0x56516497a480] Opening '/config/data/transcodes/ea9cb613b228735b76ad871ec2a04e3754.ts' for writing
frame= 4152 fps= 91 q=28.0 size=N/A time=00:02:46.05 bitrate=N/A speed=3.64x    
[hls @ 0x56516497a480] Opening '/config/data/transcodes/ea9cb613b228735b76ad871ec2a04e3755.ts' for writing
frame= 4221 fps= 91 q=28.0 size=N/A time=00:02:48.81 bitrate=N/A speed=3.66x    
[hls @ 0x56516497a480] Opening '/config/data/transcodes/ea9cb613b228735b76ad871ec2a04e3756.ts' for writing
frame= 4323 fps= 93 q=28.0 size=N/A time=00:02:52.90 bitrate=N/A speed= 3.7x    
[hls @ 0x56516497a480] Opening '/config/data/transcodes/ea9cb613b228735b76ad871ec2a04e3757.ts' for writing
[hls @ 0x56516497a480] Opening '/config/data/transcodes/ea9cb613b228735b76ad871ec2a04e3758.ts' for writing
frame= 4450 fps= 94 q=28.0 size=N/A time=00:02:57.98 bitrate=N/A speed=3.77x    
[hls @ 0x56516497a480] Opening '/config/data/transcodes/ea9cb613b228735b76ad871ec2a04e3759.ts' for writing
frame= 4593 fps= 96 q=28.0 size=N/A time=00:03:03.70 bitrate=N/A speed=3.85x    
[hls @ 0x56516497a480] Opening '/config/data/transcodes/ea9cb613b228735b76ad871ec2a04e3760.ts' for writing
[hls @ 0x56516497a480] Opening '/config/data/transcodes/ea9cb613b228735b76ad871ec2a04e3761.ts' for writing
frame= 4696 fps= 97 q=28.0 size=N/A time=00:03:07.81 bitrate=N/A speed= 3.9x    
[hls @ 0x56516497a480] Opening '/config/data/transcodes/ea9cb613b228735b76ad871ec2a04e3762.ts' for writing
frame= 4747 fps= 98 q=28.0 size=N/A time=00:03:09.86 bitrate=N/A speed= 3.9x    
frame= 4805 fps= 98 q=28.0 size=N/A time=00:03:12.17 bitrate=N/A speed=3.91x    
[hls @ 0x56516497a480] Opening '/config/data/transcodes/ea9cb613b228735b76ad871ec2a04e3763.ts' for writing
frame= 4850 fps= 98 q=28.0 size=N/A time=00:03:13.98 bitrate=N/A speed= 3.9x    
[hls @ 0x56516497a480] Opening '/config/data/transcodes/ea9cb613b228735b76ad871ec2a04e3764.ts' for writing
frame= 4905 fps= 98 q=28.0 size=N/A time=00:03:16.18 bitrate=N/A speed=3.91x    
[hls @ 0x56516497a480] Opening '/config/data/transcodes/ea9cb613b228735b76ad871ec2a04e3765.ts' for writing
frame= 4975 fps= 98 q=28.0 size=N/A time=00:03:18.97 bitrate=N/A speed=3.93x    
[hls @ 0x56516497a480] Opening '/config/data/transcodes/ea9cb613b228735b76ad871ec2a04e3766.ts' for writing
frame= 5062 fps= 99 q=28.0 size=N/A time=00:03:22.45 bitrate=N/A speed=3.96x    
[hls @ 0x56516497a480] Opening '/config/data/transcodes/ea9cb613b228735b76ad871ec2a04e3767.ts' for writing
frame= 5149 fps=100 q=28.0 size=N/A time=00:03:25.93 bitrate=N/A speed=3.98x    
[hls @ 0x56516497a480] Opening '/config/data/transcodes/ea9cb613b228735b76ad871ec2a04e3768.ts' for writing
frame= 5225 fps=100 q=28.0 size=N/A time=00:03:29.00 bitrate=N/A speed=   4x    
[hls @ 0x56516497a480] Opening '/config/data/transcodes/ea9cb613b228735b76ad871ec2a04e3769.ts' for writing
frame= 5271 fps=100 q=28.0 size=N/A time=00:03:30.81 bitrate=N/A speed=   4x    
frame= 5324 fps=100 q=28.0 size=N/A time=00:03:32.94 bitrate=N/A speed=   4x    
[hls @ 0x56516497a480] Opening '/config/data/transcodes/ea9cb613b228735b76ad871ec2a04e3770.ts' for writing
frame= 5405 fps=101 q=28.0 size=N/A time=00:03:36.17 bitrate=N/A speed=4.02x    
[hls @ 0x56516497a480] Opening '/config/data/transcodes/ea9cb613b228735b76ad871ec2a04e3771.ts' for writing
[hls @ 0x56516497a480] Opening '/config/data/transcodes/ea9cb613b228735b76ad871ec2a04e3772.ts' for writing
frame= 5502 fps=101 q=28.0 size=N/A time=00:03:40.05 bitrate=N/A speed=4.06x    
[hls @ 0x56516497a480] Opening '/config/data/transcodes/ea9cb613b228735b76ad871ec2a04e3773.ts' for writing
frame= 5637 fps=103 q=28.0 size=N/A time=00:03:45.45 bitrate=N/A speed=4.12x    
[hls @ 0x56516497a480] Opening '/config/data/transcodes/ea9cb613b228735b76ad871ec2a04e3774.ts' for writing
frame= 5718 fps=104 q=28.0 size=N/A time=00:03:48.69 bitrate=N/A speed=4.14x    
[hls @ 0x56516497a480] Opening '/config/data/transcodes/ea9cb613b228735b76ad871ec2a04e3775.ts' for writing
frame= 5784 fps=104 q=28.0 size=N/A time=00:03:51.33 bitrate=N/A speed=4.15x    
[hls @ 0x56516497a480] Opening '/config/data/transcodes/ea9cb613b228735b76ad871ec2a04e3776.ts' for writing
frame= 5833 fps=104 q=28.0 size=N/A time=00:03:53.30 bitrate=N/A speed=4.15x    
[hls @ 0x56516497a480] Opening '/config/data/transcodes/ea9cb613b228735b76ad871ec2a04e3777.ts' for writing
frame= 5887 fps=104 q=28.0 size=N/A time=00:03:55.45 bitrate=N/A speed=4.15x    
[hls @ 0x56516497a480] Opening '/config/data/transcodes/ea9cb613b228735b76ad871ec2a04e3778.ts' for writing
frame= 5952 fps=104 q=28.0 size=N/A time=00:03:58.05 bitrate=N/A speed=4.16x    
[hls @ 0x56516497a480] Opening '/config/data/transcodes/ea9cb613b228735b76ad871ec2a04e3779.ts' for writing
frame= 6062 fps=105 q=28.0 size=N/A time=00:04:02.45 bitrate=N/A speed= 4.2x    
[hls @ 0x56516497a480] Opening '/config/data/transcodes/ea9cb613b228735b76ad871ec2a04e3780.ts' for writing
[hls @ 0x56516497a480] Opening '/config/data/transcodes/ea9cb613b228735b76ad871ec2a04e3781.ts' for writing
frame= 6175 fps=106 q=28.0 size=N/A time=00:04:06.97 bitrate=N/A speed=4.24x    
frame= 6227 fps=106 q=28.0 size=N/A time=00:04:09.06 bitrate=N/A speed=4.24x    
[hls @ 0x56516497a480] Opening '/config/data/transcodes/ea9cb613b228735b76ad871ec2a04e3782.ts' for writing
frame= 6276 fps=106 q=28.0 size=N/A time=00:04:11.00 bitrate=N/A speed=4.24x    
[hls @ 0x56516497a480] Opening '/config/data/transcodes/ea9cb613b228735b76ad871ec2a04e3783.ts' for writing
frame= 6327 fps=106 q=28.0 size=N/A time=00:04:13.05 bitrate=N/A speed=4.24x    
[hls @ 0x56516497a480] Opening '/config/data/transcodes/ea9cb613b228735b76ad871ec2a04e3784.ts' for writing
frame= 6396 fps=106 q=28.0 size=N/A time=00:04:15.82 bitrate=N/A speed=4.25x    
frame= 6468 fps=106 q=28.0 size=N/A time=00:04:18.70 bitrate=N/A speed=4.26x    
[hls @ 0x56516497a480] Opening '/config/data/transcodes/ea9cb613b228735b76ad871ec2a04e3785.ts' for writing
[hls @ 0x56516497a480] Opening '/config/data/transcodes/ea9cb613b228735b76ad871ec2a04e3786.ts' for writing
frame= 6560 fps=107 q=28.0 size=N/A time=00:04:22.37 bitrate=N/A speed=4.28x    
frame= 6608 fps=107 q=28.0 size=N/A time=00:04:24.29 bitrate=N/A speed=4.28x    
[hls @ 0x56516497a480] Opening '/config/data/transcodes/ea9cb613b228735b76ad871ec2a04e3787.ts' for writing
frame= 6657 fps=107 q=28.0 size=N/A time=00:04:26.26 bitrate=N/A speed=4.28x    
[hls @ 0x56516497a480] Opening '/config/data/transcodes/ea9cb613b228735b76ad871ec2a04e3788.ts' for writing
frame= 6710 fps=107 q=28.0 size=N/A time=00:04:28.37 bitrate=N/A speed=4.28x    
frame= 6745 fps=107 q=28.0 size=N/A time=00:04:29.78 bitrate=N/A speed=4.26x    
[hls @ 0x56516497a480] Opening '/config/data/transcodes/ea9cb613b228735b76ad871ec2a04e3789.ts' for writing
frame= 6799 fps=107 q=28.0 size=N/A time=00:04:31.93 bitrate=N/A speed=4.27x    
[hls @ 0x56516497a480] Opening '/config/data/transcodes/ea9cb613b228735b76ad871ec2a04e3790.ts' for writing
frame= 6870 fps=107 q=28.0 size=N/A time=00:04:34.77 bitrate=N/A speed=4.28x    
[hls @ 0x56516497a480] Opening '/config/data/transcodes/ea9cb613b228735b76ad871ec2a04e3791.ts' for writing
frame= 6929 fps=107 q=28.0 size=N/A time=00:04:37.14 bitrate=N/A speed=4.28x    
[hls @ 0x56516497a480] Opening '/config/data/transcodes/ea9cb613b228735b76ad871ec2a04e3792.ts' for writing
frame= 7024 fps=108 q=28.0 size=N/A time=00:04:40.93 bitrate=N/A speed= 4.3x    
[hls @ 0x56516497a480] Opening '/config/data/transcodes/ea9cb613b228735b76ad871ec2a04e3793.ts' for writing
frame= 7122 fps=108 q=28.0 size=N/A time=00:04:44.86 bitrate=N/A speed=4.33x    
[hls @ 0x56516497a480] Opening '/config/data/transcodes/ea9cb613b228735b76ad871ec2a04e3794.ts' for writing
frame= 7220 fps=109 q=28.0 size=N/A time=00:04:48.78 bitrate=N/A speed=4.36x    
[hls @ 0x56516497a480] Opening '/config/data/transcodes/ea9cb613b228735b76ad871ec2a04e3795.ts' for writing
frame= 7283 fps=109 q=28.0 size=N/A time=00:04:51.30 bitrate=N/A speed=4.36x    
[hls @ 0x56516497a480] Opening '/config/data/transcodes/ea9cb613b228735b76ad871ec2a04e3796.ts' for writing
frame= 7326 fps=109 q=28.0 size=N/A time=00:04:53.01 bitrate=N/A speed=4.36x    
[hls @ 0x56516497a480] Opening '/config/data/transcodes/ea9cb613b228735b76ad871ec2a04e3797.ts' for writing
frame= 7371 fps=109 q=28.0 size=N/A time=00:04:54.82 bitrate=N/A speed=4.34x    
frame= 7424 fps=109 q=28.0 size=N/A time=00:04:56.93 bitrate=N/A speed=4.34x    
[hls @ 0x56516497a480] Opening '/config/data/transcodes/ea9cb613b228735b76ad871ec2a04e3798.ts' for writing
frame= 7471 fps=108 q=28.0 size=N/A time=00:04:58.81 bitrate=N/A speed=4.34x    
[hls @ 0x56516497a480] Opening '/config/data/transcodes/ea9cb613b228735b76ad871ec2a04e3799.ts' for writing
frame= 7533 fps=109 q=28.0 size=N/A time=00:05:01.29 bitrate=N/A speed=4.34x    
[hls @ 0x56516497a480] Opening '/config/data/transcodes/ea9cb613b228735b76ad871ec2a04e37100.ts' for writing
frame= 7619 fps=109 q=28.0 size=N/A time=00:05:04.74 bitrate=N/A speed=4.36x    
[hls @ 0x56516497a480] Opening '/config/data/transcodes/ea9cb613b228735b76ad871ec2a04e37101.ts' for writing
frame= 7714 fps=110 q=28.0 size=N/A time=00:05:08.54 bitrate=N/A speed=4.38x    
[hls @ 0x56516497a480] Opening '/config/data/transcodes/ea9cb613b228735b76ad871ec2a04e37102.ts' for writing
frame= 7756 fps=109 q=28.0 size=N/A time=00:05:10.22 bitrate=N/A speed=4.38x    
frame= 7797 fps=109 q=28.0 size=N/A time=00:05:11.85 bitrate=N/A speed=4.37x    
[hls @ 0x56516497a480] Opening '/config/data/transcodes/ea9cb613b228735b76ad871ec2a04e37103.ts' for writing
frame= 7846 fps=109 q=28.0 size=N/A time=00:05:13.81 bitrate=N/A speed=4.37x    
frame= 7893 fps=109 q=28.0 size=N/A time=00:05:15.69 bitrate=N/A speed=4.36x    
[hls @ 0x56516497a480] Opening '/config/data/transcodes/ea9cb613b228735b76ad871ec2a04e37104.ts' for writing
frame= 7947 fps=109 q=28.0 size=N/A time=00:05:17.86 bitrate=N/A speed=4.36x    
[hls @ 0x56516497a480] Opening '/config/data/transcodes/ea9cb613b228735b76ad871ec2a04e37105.ts' for writing
frame= 7990 fps=109 q=28.0 size=N/A time=00:05:19.57 bitrate=N/A speed=4.35x    
[hls @ 0x56516497a480] Opening '/config/data/transcodes/ea9cb613b228735b76ad871ec2a04e37106.ts' for writing
frame= 8054 fps=109 q=28.0 size=N/A time=00:05:22.13 bitrate=N/A speed=4.36x    
frame= 8093 fps=109 q=28.0 size=N/A time=00:05:23.69 bitrate=N/A speed=4.35x    
[hls @ 0x56516497a480] Opening '/config/data/transcodes/ea9cb613b228735b76ad871ec2a04e37107.ts' for writing
frame= 8164 fps=109 q=28.0 size=N/A time=00:05:26.54 bitrate=N/A speed=4.36x    
[hls @ 0x56516497a480] Opening '/config/data/transcodes/ea9cb613b228735b76ad871ec2a04e37108.ts' for writing
frame= 8239 fps=109 q=28.0 size=N/A time=00:05:29.53 bitrate=N/A speed=4.37x    
[hls @ 0x56516497a480] Opening '/config/data/transcodes/ea9cb613b228735b76ad871ec2a04e37109.ts' for writing
frame= 8319 fps=110 q=28.0 size=N/A time=00:05:32.73 bitrate=N/A speed=4.38x    
[hls @ 0x56516497a480] Opening '/config/data/transcodes/ea9cb613b228735b76ad871ec2a04e37110.ts' for writing
frame= 8405 fps=110 q=28.0 size=N/A time=00:05:36.17 bitrate=N/A speed= 4.4x    
[hls @ 0x56516497a480] Opening '/config/data/transcodes/ea9cb613b228735b76ad871ec2a04e37111.ts' for writing
frame= 8458 fps=110 q=28.0 size=N/A time=00:05:38.30 bitrate=N/A speed= 4.4x    
[hls @ 0x56516497a480] Opening '/config/data/transcodes/ea9cb613b228735b76ad871ec2a04e37112.ts' for writing
frame= 8513 fps=110 q=28.0 size=N/A time=00:05:40.50 bitrate=N/A speed= 4.4x    
[hls @ 0x56516497a480] Opening '/config/data/transcodes/ea9cb613b228735b76ad871ec2a04e37113.ts' for writing
frame= 8599 fps=110 q=28.0 size=N/A time=00:05:43.93 bitrate=N/A speed=4.41x    
[hls @ 0x56516497a480] Opening '/config/data/transcodes/ea9cb613b228735b76ad871ec2a04e37114.ts' for writing
frame= 8659 fps=110 q=28.0 size=N/A time=00:05:46.34 bitrate=N/A speed=4.42x    
[hls @ 0x56516497a480] Opening '/config/data/transcodes/ea9cb613b228735b76ad871ec2a04e37115.ts' for writing
frame= 8735 fps=111 q=28.0 size=N/A time=00:05:49.37 bitrate=N/A speed=4.42x    
[hls @ 0x56516497a480] Opening '/config/data/transcodes/ea9cb613b228735b76ad871ec2a04e37116.ts' for writing
frame= 8796 fps=111 q=28.0 size=N/A time=00:05:51.82 bitrate=N/A speed=4.43x    
[hls @ 0x56516497a480] Opening '/config/data/transcodes/ea9cb613b228735b76ad871ec2a04e37117.ts' for writing
frame= 8874 fps=111 q=28.0 size=N/A time=00:05:54.94 bitrate=N/A speed=4.44x    
[hls @ 0x56516497a480] Opening '/config/data/transcodes/ea9cb613b228735b76ad871ec2a04e37118.ts' for writing
frame= 8958 fps=111 q=28.0 size=N/A time=00:05:58.29 bitrate=N/A speed=4.45x    
[hls @ 0x56516497a480] Opening '/config/data/transcodes/ea9cb613b228735b76ad871ec2a04e37119.ts' for writing
frame= 9027 fps=111 q=28.0 size=N/A time=00:06:01.06 bitrate=N/A speed=4.46x    
frame= 9095 fps=112 q=28.0 size=N/A time=00:06:03.77 bitrate=N/A speed=4.46x    
[hls @ 0x56516497a480] Opening '/config/data/transcodes/ea9cb613b228735b76ad871ec2a04e37120.ts' for writing
frame= 9170 fps=112 q=28.0 size=N/A time=00:06:06.78 bitrate=N/A speed=4.47x    
[hls @ 0x56516497a480] Opening '/config/data/transcodes/ea9cb613b228735b76ad871ec2a04e37121.ts' for writing
frame= 9244 fps=112 q=28.0 size=N/A time=00:06:09.74 bitrate=N/A speed=4.48x    
[hls @ 0x56516497a480] Opening '/config/data/transcodes/ea9cb613b228735b76ad871ec2a04e37122.ts' for writing
frame= 9319 fps=112 q=28.0 size=N/A time=00:06:12.73 bitrate=N/A speed=4.49x    
[hls @ 0x56516497a480] Opening '/config/data/transcodes/ea9cb613b228735b76ad871ec2a04e37123.ts' for writing
[hls @ 0x56516497a480] Opening '/config/data/transcodes/ea9cb613b228735b76ad871ec2a04e37124.ts' for writing
frame= 9396 fps=112 q=28.0 size=N/A time=00:06:15.82 bitrate=N/A speed= 4.5x    
frame= 9456 fps=113 q=28.0 size=N/A time=00:06:18.21 bitrate=N/A speed= 4.5x    
[hls @ 0x56516497a480] Opening '/config/data/transcodes/ea9cb613b228735b76ad871ec2a04e37125.ts' for writing
frame= 9524 fps=113 q=28.0 size=N/A time=00:06:20.94 bitrate=N/A speed=4.51x    
[hls @ 0x56516497a480] Opening '/config/data/transcodes/ea9cb613b228735b76ad871ec2a04e37126.ts' for writing
frame= 9602 fps=113 q=28.0 size=N/A time=00:06:24.06 bitrate=N/A speed=4.52x    
[hls @ 0x56516497a480] Opening '/config/data/transcodes/ea9cb613b228735b76ad871ec2a04e37127.ts' for writing
frame= 9673 fps=113 q=28.0 size=N/A time=00:06:26.90 bitrate=N/A speed=4.52x    
[hls @ 0x56516497a480] Opening '/config/data/transcodes/ea9cb613b228735b76ad871ec2a04e37128.ts' for writing
frame= 9754 fps=113 q=28.0 size=N/A time=00:06:30.14 bitrate=N/A speed=4.53x    
[hls @ 0x56516497a480] Opening '/config/data/transcodes/ea9cb613b228735b76ad871ec2a04e37129.ts' for writing
frame= 9824 fps=114 q=28.0 size=N/A time=00:06:32.93 bitrate=N/A speed=4.54x    
[hls @ 0x56516497a480] Opening '/config/data/transcodes/ea9cb613b228735b76ad871ec2a04e37130.ts' for writing
frame= 9909 fps=114 q=28.0 size=N/A time=00:06:36.33 bitrate=N/A speed=4.55x    
[hls @ 0x56516497a480] Opening '/config/data/transcodes/ea9cb613b228735b76ad871ec2a04e37131.ts' for writing
[hls @ 0x56516497a480] Opening '/config/data/transcodes/ea9cb613b228735b76ad871ec2a04e37132.ts' for writing
frame= 9996 fps=114 q=28.0 size=N/A time=00:06:39.82 bitrate=N/A speed=4.56x    
[hls @ 0x56516497a480] Opening '/config/data/transcodes/ea9cb613b228735b76ad871ec2a04e37133.ts' for writing
frame=10073 fps=114 q=28.0 size=N/A time=00:06:42.90 bitrate=N/A speed=4.57x    
frame=10126 fps=114 q=28.0 size=N/A time=00:06:45.01 bitrate=N/A speed=4.57x    
[hls @ 0x56516497a480] Opening '/config/data/transcodes/ea9cb613b228735b76ad871ec2a04e37134.ts' for writing
frame=10207 fps=114 q=28.0 size=N/A time=00:06:48.25 bitrate=N/A speed=4.58x    
[hls @ 0x56516497a480] Opening '/config/data/transcodes/ea9cb613b228735b76ad871ec2a04e37135.ts' for writing
frame=10252 fps=114 q=28.0 size=N/A time=00:06:50.06 bitrate=N/A speed=4.57x    
[hls @ 0x56516497a480] Opening '/config/data/transcodes/ea9cb613b228735b76ad871ec2a04e37136.ts' for writing
frame=10296 fps=114 q=28.0 size=N/A time=00:06:51.81 bitrate=N/A speed=4.55x    
frame=10359 fps=114 q=28.0 size=N/A time=00:06:54.33 bitrate=N/A speed=4.56x    
[hls @ 0x56516497a480] Opening '/config/data/transcodes/ea9cb613b228735b76ad871ec2a04e37137.ts' for writing
frame=10432 fps=114 q=28.0 size=N/A time=00:06:57.25 bitrate=N/A speed=4.56x    
[hls @ 0x56516497a480] Opening '/config/data/transcodes/ea9cb613b228735b76ad871ec2a04e37138.ts' for writing
frame=10482 fps=114 q=28.0 size=N/A time=00:06:59.26 bitrate=N/A speed=4.56x    
[hls @ 0x56516497a480] Opening '/config/data/transcodes/ea9cb613b228735b76ad871ec2a04e37139.ts' for writing
frame=10525 fps=114 q=28.0 size=N/A time=00:07:00.97 bitrate=N/A speed=4.55x    
[hls @ 0x56516497a480] Opening '/config/data/transcodes/ea9cb613b228735b76ad871ec2a04e37140.ts' for writing
frame=10616 fps=114 q=28.0 size=N/A time=00:07:04.61 bitrate=N/A speed=4.57x    
[hls @ 0x56516497a480] Opening '/config/data/transcodes/ea9cb613b228735b76ad871ec2a04e37141.ts' for writing
frame=10699 fps=114 q=28.0 size=N/A time=00:07:07.94 bitrate=N/A speed=4.58x    
[hls @ 0x56516497a480] Opening '/config/data/transcodes/ea9cb613b228735b76ad871ec2a04e37142.ts' for writing
frame=10766 fps=115 q=28.0 size=N/A time=00:07:10.61 bitrate=N/A speed=4.58x    
[hls @ 0x56516497a480] Opening '/config/data/transcodes/ea9cb613b228735b76ad871ec2a04e37143.ts' for writing
frame=10856 fps=115 q=28.0 size=N/A time=00:07:14.21 bitrate=N/A speed= 4.6x    
[hls @ 0x56516497a480] Opening '/config/data/transcodes/ea9cb613b228735b76ad871ec2a04e37144.ts' for writing
frame=10939 fps=115 q=28.0 size=N/A time=00:07:17.54 bitrate=N/A speed=4.61x    
[hls @ 0x56516497a480] Opening '/config/data/transcodes/ea9cb613b228735b76ad871ec2a04e37145.ts' for writing
frame=11011 fps=115 q=28.0 size=N/A time=00:07:20.42 bitrate=N/A speed=4.61x    
[hls @ 0x56516497a480] Opening '/config/data/transcodes/ea9cb613b228735b76ad871ec2a04e37146.ts' for writing
frame=11071 fps=115 q=28.0 size=N/A time=00:07:22.81 bitrate=N/A speed=4.61x    
[hls @ 0x56516497a480] Opening '/config/data/transcodes/ea9cb613b228735b76ad871ec2a04e37147.ts' for writing
frame=11173 fps=116 q=28.0 size=N/A time=00:07:26.89 bitrate=N/A speed=4.63x    
[hls @ 0x56516497a480] Opening '/config/data/transcodes/ea9cb613b228735b76ad871ec2a04e37148.ts' for writing
[hls @ 0x56516497a480] Opening '/config/data/transcodes/ea9cb613b228735b76ad871ec2a04e37149.ts' for writing
frame=11284 fps=116 q=28.0 size=N/A time=00:07:31.34 bitrate=N/A speed=4.65x    
[hls @ 0x56516497a480] Opening '/config/data/transcodes/ea9cb613b228735b76ad871ec2a04e37150.ts' for writing
frame=11413 fps=117 q=28.0 size=N/A time=00:07:36.49 bitrate=N/A speed=4.68x    
[hls @ 0x56516497a480] Opening '/config/data/transcodes/ea9cb613b228735b76ad871ec2a04e37151.ts' for writing
[hls @ 0x56516497a480] Opening '/config/data/transcodes/ea9cb613b228735b76ad871ec2a04e37152.ts' for writing
frame=11533 fps=118 q=28.0 size=N/A time=00:07:41.29 bitrate=N/A speed=4.71x    
[hls @ 0x56516497a480] Opening '/config/data/transcodes/ea9cb613b228735b76ad871ec2a04e37153.ts' for writing
[hls @ 0x56516497a480] Opening '/config/data/transcodes/ea9cb613b228735b76ad871ec2a04e37154.ts' for writing
frame=11669 fps=118 q=28.0 size=N/A time=00:07:46.73 bitrate=N/A speed=4.74x    
[hls @ 0x56516497a480] Opening '/config/data/transcodes/ea9cb613b228735b76ad871ec2a04e37155.ts' for writing
frame=11764 fps=119 q=28.0 size=N/A time=00:07:50.54 bitrate=N/A speed=4.75x    
[hls @ 0x56516497a480] Opening '/config/data/transcodes/ea9cb613b228735b76ad871ec2a04e37156.ts' for writing
[hls @ 0x56516497a480] Opening '/config/data/transcodes/ea9cb613b228735b76ad871ec2a04e37157.ts' for writing
frame=11875 fps=119 q=28.0 size=N/A time=00:07:54.98 bitrate=N/A speed=4.77x    
[hls @ 0x56516497a480] Opening '/config/data/transcodes/ea9cb613b228735b76ad871ec2a04e37158.ts' for writing
frame=11991 fps=120 q=28.0 size=N/A time=00:07:59.61 bitrate=N/A speed= 4.8x    
[hls @ 0x56516497a480] Opening '/config/data/transcodes/ea9cb613b228735b76ad871ec2a04e37159.ts' for writing
frame=12072 fps=120 q=28.0 size=N/A time=00:08:02.85 bitrate=N/A speed= 4.8x    
[hls @ 0x56516497a480] Opening '/config/data/transcodes/ea9cb613b228735b76ad871ec2a04e37160.ts' for writing
[hls @ 0x56516497a480] Opening '/config/data/transcodes/ea9cb613b228735b76ad871ec2a04e37161.ts' for writing
frame=12171 fps=121 q=28.0 size=N/A time=00:08:06.82 bitrate=N/A speed=4.82x    
[hls @ 0x56516497a480] Opening '/config/data/transcodes/ea9cb613b228735b76ad871ec2a04e37162.ts' for writing
frame=12272 fps=121 q=28.0 size=N/A time=00:08:10.85 bitrate=N/A speed=4.84x    
[hls @ 0x56516497a480] Opening '/config/data/transcodes/ea9cb613b228735b76ad871ec2a04e37163.ts' for writing
[hls @ 0x56516497a480] Opening '/config/data/transcodes/ea9cb613b228735b76ad871ec2a04e37164.ts' for writing
frame=12410 fps=122 q=28.0 size=N/A time=00:08:16.38 bitrate=N/A speed=4.87x    
[hls @ 0x56516497a480] Opening '/config/data/transcodes/ea9cb613b228735b76ad871ec2a04e37165.ts' for writing
[hls @ 0x56516497a480] Opening '/config/data/transcodes/ea9cb613b228735b76ad871ec2a04e37166.ts' for writing
frame=12577 fps=123 q=28.0 size=N/A time=00:08:23.06 bitrate=N/A speed=4.91x    
[hls @ 0x56516497a480] Opening '/config/data/transcodes/ea9cb613b228735b76ad871ec2a04e37167.ts' for writing
frame=12679 fps=123 q=28.0 size=N/A time=00:08:27.13 bitrate=N/A speed=4.92x    
[hls @ 0x56516497a480] Opening '/config/data/transcodes/ea9cb613b228735b76ad871ec2a04e37168.ts' for writing
[hls @ 0x56516497a480] Opening '/config/data/transcodes/ea9cb613b228735b76ad871ec2a04e37169.ts' for writing
frame=12795 fps=124 q=28.0 size=N/A time=00:08:31.78 bitrate=N/A speed=4.94x    
[hls @ 0x56516497a480] Opening '/config/data/transcodes/ea9cb613b228735b76ad871ec2a04e37170.ts' for writing
frame=12899 fps=124 q=28.0 size=N/A time=00:08:35.94 bitrate=N/A speed=4.96x    
[hls @ 0x56516497a480] Opening '/config/data/transcodes/ea9cb613b228735b76ad871ec2a04e37171.ts' for writing
[hls @ 0x56516497a480] Opening '/config/data/transcodes/ea9cb613b228735b76ad871ec2a04e37172.ts' for writing
frame=13051 fps=125 q=28.0 size=N/A time=00:08:42.02 bitrate=N/A speed=   5x    
[hls @ 0x56516497a480] Opening '/config/data/transcodes/ea9cb613b228735b76ad871ec2a04e37173.ts' for writing
[hls @ 0x56516497a480] Opening '/config/data/transcodes/ea9cb613b228735b76ad871ec2a04e37174.ts' for writing
frame=13197 fps=126 q=28.0 size=N/A time=00:08:47.85 bitrate=N/A speed=5.03x    
[hls @ 0x56516497a480] Opening '/config/data/transcodes/ea9cb613b228735b76ad871ec2a04e37175.ts' for writing
[hls @ 0x56516497a480] Opening '/config/data/transcodes/ea9cb613b228735b76ad871ec2a04e37176.ts' for writing
frame=13298 fps=126 q=28.0 size=N/A time=00:08:51.90 bitrate=N/A speed=5.04x    
[hls @ 0x56516497a480] Opening '/config/data/transcodes/ea9cb613b228735b76ad871ec2a04e37177.ts' for writing
frame=13388 fps=126 q=28.0 size=N/A time=00:08:55.50 bitrate=N/A speed=5.05x    
[hls @ 0x56516497a480] Opening '/config/data/transcodes/ea9cb613b228735b76ad871ec2a04e37178.ts' for writing
frame=13518 fps=127 q=28.0 size=N/A time=00:09:00.69 bitrate=N/A speed=5.08x    
[hls @ 0x56516497a480] Opening '/config/data/transcodes/ea9cb613b228735b76ad871ec2a04e37179.ts' for writing
[hls @ 0x56516497a480] Opening '/config/data/transcodes/ea9cb613b228735b76ad871ec2a04e37180.ts' for writing
frame=13651 fps=128 q=28.0 size=N/A time=00:09:06.02 bitrate=N/A speed= 5.1x    
[hls @ 0x56516497a480] Opening '/config/data/transcodes/ea9cb613b228735b76ad871ec2a04e37181.ts' for writing
[hls @ 0x56516497a480] Opening '/config/data/transcodes/ea9cb613b228735b76ad871ec2a04e37182.ts' for writing
frame=13787 fps=128 q=28.0 size=N/A time=00:09:11.46 bitrate=N/A speed=5.13x    
[hls @ 0x56516497a480] Opening '/config/data/transcodes/ea9cb613b228735b76ad871ec2a04e37183.ts' for writing
[hls @ 0x56516497a480] Opening '/config/data/transcodes/ea9cb613b228735b76ad871ec2a04e37184.ts' for writing
frame=13928 fps=129 q=28.0 size=N/A time=00:09:17.09 bitrate=N/A speed=5.16x    
[hls @ 0x56516497a480] Opening '/config/data/transcodes/ea9cb613b228735b76ad871ec2a04e37185.ts' for writing
frame=14036 fps=129 q=28.0 size=N/A time=00:09:21.42 bitrate=N/A speed=5.17x    
[hls @ 0x56516497a480] Opening '/config/data/transcodes/ea9cb613b228735b76ad871ec2a04e37186.ts' for writing
[hls @ 0x56516497a480] Opening '/config/data/transcodes/ea9cb613b228735b76ad871ec2a04e37187.ts' for writing
frame=14170 fps=130 q=28.0 size=N/A time=00:09:26.78 bitrate=N/A speed= 5.2x    
[hls @ 0x56516497a480] Opening '/config/data/transcodes/ea9cb613b228735b76ad871ec2a04e37188.ts' for writing
[hls @ 0x56516497a480] Opening '/config/data/transcodes/ea9cb613b228735b76ad871ec2a04e37189.ts' for writing
frame=14312 fps=131 q=28.0 size=N/A time=00:09:32.45 bitrate=N/A speed=5.23x    
[hls @ 0x56516497a480] Opening '/config/data/transcodes/ea9cb613b228735b76ad871ec2a04e37190.ts' for writing
[hls @ 0x56516497a480] Opening '/config/data/transcodes/ea9cb613b228735b76ad871ec2a04e37191.ts' for writing
frame=14422 fps=131 q=28.0 size=N/A time=00:09:36.85 bitrate=N/A speed=5.24x    
[hls @ 0x56516497a480] Opening '/config/data/transcodes/ea9cb613b228735b76ad871ec2a04e37192.ts' for writing
frame=14515 fps=131 q=28.0 size=N/A time=00:09:40.58 bitrate=N/A speed=5.25x    
[hls @ 0x56516497a480] Opening '/config/data/transcodes/ea9cb613b228735b76ad871ec2a04e37193.ts' for writing
frame=14635 fps=132 q=28.0 size=N/A time=00:09:45.38 bitrate=N/A speed=5.27x    
[hls @ 0x56516497a480] Opening '/config/data/transcodes/ea9cb613b228735b76ad871ec2a04e37194.ts' for writing
[hls @ 0x56516497a480] Opening '/config/data/transcodes/ea9cb613b228735b76ad871ec2a04e37195.ts' for writing
frame=14749 fps=132 q=28.0 size=N/A time=00:09:49.93 bitrate=N/A speed=5.29x    
[hls @ 0x56516497a480] Opening '/config/data/transcodes/ea9cb613b228735b76ad871ec2a04e37196.ts' for writing
[hls @ 0x56516497a480] Opening '/config/data/transcodes/ea9cb613b228735b76ad871ec2a04e37197.ts' for writing
frame=14871 fps=133 q=28.0 size=N/A time=00:09:54.81 bitrate=N/A speed=5.31x    
[hls @ 0x56516497a480] Opening '/config/data/transcodes/ea9cb613b228735b76ad871ec2a04e37198.ts' for writing
frame=15009 fps=133 q=28.0 size=N/A time=00:10:00.34 bitrate=N/A speed=5.33x    
[hls @ 0x56516497a480] Opening '/config/data/transcodes/ea9cb613b228735b76ad871ec2a04e37199.ts' for writing
[hls @ 0x56516497a480] Opening '/config/data/transcodes/ea9cb613b228735b76ad871ec2a04e37200.ts' for writing
frame=15144 fps=134 q=28.0 size=N/A time=00:10:05.73 bitrate=N/A speed=5.36x    
[hls @ 0x56516497a480] Opening '/config/data/transcodes/ea9cb613b228735b76ad871ec2a04e37201.ts' for writing
frame=15239 fps=134 q=28.0 size=N/A time=00:10:09.53 bitrate=N/A speed=5.37x    
[hls @ 0x56516497a480] Opening '/config/data/transcodes/ea9cb613b228735b76ad871ec2a04e37202.ts' for writing
[hls @ 0x56516497a480] Opening '/config/data/transcodes/ea9cb613b228735b76ad871ec2a04e37203.ts' for writing
frame=15323 fps=134 q=28.0 size=N/A time=00:10:12.90 bitrate=N/A speed=5.37x    
[hls @ 0x56516497a480] Opening '/config/data/transcodes/ea9cb613b228735b76ad871ec2a04e37204.ts' for writing
frame=15416 fps=135 q=28.0 size=N/A time=00:10:16.61 bitrate=N/A speed=5.38x    
[hls @ 0x56516497a480] Opening '/config/data/transcodes/ea9cb613b228735b76ad871ec2a04e37205.ts' for writing
[hls @ 0x56516497a480] Opening '/config/data/transcodes/ea9cb613b228735b76ad871ec2a04e37206.ts' for writing
frame=15585 fps=135 q=28.0 size=N/A time=00:10:23.38 bitrate=N/A speed=5.42x    
[hls @ 0x56516497a480] Opening '/config/data/transcodes/ea9cb613b228735b76ad871ec2a04e37207.ts' for writing
[hls @ 0x56516497a480] Opening '/config/data/transcodes/ea9cb613b228735b76ad871ec2a04e37208.ts' for writing
frame=15720 fps=136 q=28.0 size=N/A time=00:10:28.77 bitrate=N/A speed=5.44x    
[hls @ 0x56516497a480] Opening '/config/data/transcodes/ea9cb613b228735b76ad871ec2a04e37209.ts' for writing
frame=15818 fps=136 q=28.0 size=N/A time=00:10:32.70 bitrate=N/A speed=5.45x    
[hls @ 0x56516497a480] Opening '/config/data/transcodes/ea9cb613b228735b76ad871ec2a04e37210.ts' for writing
[hls @ 0x56516497a480] Opening '/config/data/transcodes/ea9cb613b228735b76ad871ec2a04e37211.ts' for writing
frame=15938 fps=137 q=28.0 size=N/A time=00:10:37.50 bitrate=N/A speed=5.47x    
[hls @ 0x56516497a480] Opening '/config/data/transcodes/ea9cb613b228735b76ad871ec2a04e37212.ts' for writing
frame=16043 fps=137 q=28.0 size=N/A time=00:10:41.70 bitrate=N/A speed=5.48x    
[hls @ 0x56516497a480] Opening '/config/data/transcodes/ea9cb613b228735b76ad871ec2a04e37213.ts' for writing
[hls @ 0x56516497a480] Opening '/config/data/transcodes/ea9cb613b228735b76ad871ec2a04e37214.ts' for writing
frame=16194 fps=138 q=28.0 size=N/A time=00:10:47.74 bitrate=N/A speed=5.51x    
[hls @ 0x56516497a480] Opening '/config/data/transcodes/ea9cb613b228735b76ad871ec2a04e37215.ts' for writing
[hls @ 0x56516497a480] Opening '/config/data/transcodes/ea9cb613b228735b76ad871ec2a04e37216.ts' for writing
frame=16305 fps=138 q=28.0 size=N/A time=00:10:52.18 bitrate=N/A speed=5.52x    
[hls @ 0x56516497a480] Opening '/config/data/transcodes/ea9cb613b228735b76ad871ec2a04e37217.ts' for writing
frame=16400 fps=138 q=28.0 size=N/A time=00:10:55.97 bitrate=N/A speed=5.53x    
[hls @ 0x56516497a480] Opening '/config/data/transcodes/ea9cb613b228735b76ad871ec2a04e37218.ts' for writing
frame=16492 fps=139 q=28.0 size=N/A time=00:10:59.66 bitrate=N/A speed=5.54x    
[hls @ 0x56516497a480] Opening '/config/data/transcodes/ea9cb613b228735b76ad871ec2a04e37219.ts' for writing
[hls @ 0x56516497a480] Opening '/config/data/transcodes/ea9cb613b228735b76ad871ec2a04e37220.ts' for writing
frame=16607 fps=139 q=28.0 size=N/A time=00:11:04.25 bitrate=N/A speed=5.56x    
[hls @ 0x56516497a480] Opening '/config/data/transcodes/ea9cb613b228735b76ad871ec2a04e37221.ts' for writing
frame=16729 fps=139 q=28.0 size=N/A time=00:11:09.14 bitrate=N/A speed=5.57x    
[hls @ 0x56516497a480] Opening '/config/data/transcodes/ea9cb613b228735b76ad871ec2a04e37222.ts' for writing
[hls @ 0x56516497a480] Opening '/config/data/transcodes/ea9cb613b228735b76ad871ec2a04e37223.ts' for writing
frame=16838 fps=140 q=28.0 size=N/A time=00:11:13.49 bitrate=N/A speed=5.59x    
[hls @ 0x56516497a480] Opening '/config/data/transcodes/ea9cb613b228735b76ad871ec2a04e37224.ts' for writing
[hls @ 0x56516497a480] Opening '/config/data/transcodes/ea9cb613b228735b76ad871ec2a04e37225.ts' for writing
frame=16971 fps=140 q=28.0 size=N/A time=00:11:18.82 bitrate=N/A speed=5.61x    
[hls @ 0x56516497a480] Opening '/config/data/transcodes/ea9cb613b228735b76ad871ec2a04e37226.ts' for writing
[hls @ 0x56516497a480] Opening '/config/data/transcodes/ea9cb613b228735b76ad871ec2a04e37227.ts' for writing
frame=17127 fps=141 q=28.0 size=N/A time=00:11:25.05 bitrate=N/A speed=5.63x    
[hls @ 0x56516497a480] Opening '/config/data/transcodes/ea9cb613b228735b76ad871ec2a04e37228.ts' for writing
frame=17249 fps=141 q=28.0 size=N/A time=00:11:29.94 bitrate=N/A speed=5.65x    
[hls @ 0x56516497a480] Opening '/config/data/transcodes/ea9cb613b228735b76ad871ec2a04e37229.ts' for writing
[hls @ 0x56516497a480] Opening '/config/data/transcodes/ea9cb613b228735b76ad871ec2a04e37230.ts' for writing
frame=17410 fps=142 q=28.0 size=N/A time=00:11:36.38 bitrate=N/A speed=5.68x    
[hls @ 0x56516497a480] Opening '/config/data/transcodes/ea9cb613b228735b76ad871ec2a04e37231.ts' for writing
[hls @ 0x56516497a480] Opening '/config/data/transcodes/ea9cb613b228735b76ad871ec2a04e37232.ts' for writing
frame=17533 fps=142 q=28.0 size=N/A time=00:11:41.29 bitrate=N/A speed= 5.7x    
[hls @ 0x56516497a480] Opening '/config/data/transcodes/ea9cb613b228735b76ad871ec2a04e37233.ts' for writing
[hls @ 0x56516497a480] Opening '/config/data/transcodes/ea9cb613b228735b76ad871ec2a04e37234.ts' for writing
frame=17674 fps=143 q=28.0 size=N/A time=00:11:46.94 bitrate=N/A speed=5.72x    
[hls @ 0x56516497a480] Opening '/config/data/transcodes/ea9cb613b228735b76ad871ec2a04e37235.ts' for writing
[hls @ 0x56516497a480] Opening '/config/data/transcodes/ea9cb613b228735b76ad871ec2a04e37236.ts' for writing
frame=17829 fps=144 q=28.0 size=N/A time=00:11:53.13 bitrate=N/A speed=5.75x    
[hls @ 0x56516497a480] Opening '/config/data/transcodes/ea9cb613b228735b76ad871ec2a04e37237.ts' for writing
[hls @ 0x56516497a480] Opening '/config/data/transcodes/ea9cb613b228735b76ad871ec2a04e37238.ts' for writing
frame=17958 fps=144 q=28.0 size=N/A time=00:11:58.29 bitrate=N/A speed=5.77x    
[hls @ 0x56516497a480] Opening '/config/data/transcodes/ea9cb613b228735b76ad871ec2a04e37239.ts' for writing
frame=18054 fps=144 q=28.0 size=N/A time=00:12:02.13 bitrate=N/A speed=5.77x    
[hls @ 0x56516497a480] Opening '/config/data/transcodes/ea9cb613b228735b76ad871ec2a04e37240.ts' for writing
frame=18156 fps=145 q=28.0 size=N/A time=00:12:06.22 bitrate=N/A speed=5.78x    
[hls @ 0x56516497a480] Opening '/config/data/transcodes/ea9cb613b228735b76ad871ec2a04e37241.ts' for writing
[hls @ 0x56516497a480] Opening '/config/data/transcodes/ea9cb613b228735b76ad871ec2a04e37242.ts' for writing
frame=18298 fps=145 q=28.0 size=N/A time=00:12:11.90 bitrate=N/A speed= 5.8x    
[hls @ 0x56516497a480] Opening '/config/data/transcodes/ea9cb613b228735b76ad871ec2a04e37243.ts' for writing
[hls @ 0x56516497a480] Opening '/config/data/transcodes/ea9cb613b228735b76ad871ec2a04e37244.ts' for writing
frame=18412 fps=145 q=28.0 size=N/A time=00:12:16.46 bitrate=N/A speed=5.82x    
[hls @ 0x56516497a480] Opening '/config/data/transcodes/ea9cb613b228735b76ad871ec2a04e37245.ts' for writing
frame=18539 fps=146 q=28.0 size=N/A time=00:12:21.54 bitrate=N/A speed=5.83x    
[hls @ 0x56516497a480] Opening '/config/data/transcodes/ea9cb613b228735b76ad871ec2a04e37246.ts' for writing
[hls @ 0x56516497a480] Opening '/config/data/transcodes/ea9cb613b228735b76ad871ec2a04e37247.ts' for writing
frame=18668 fps=146 q=28.0 size=N/A time=00:12:26.70 bitrate=N/A speed=5.85x    
[hls @ 0x56516497a480] Opening '/config/data/transcodes/ea9cb613b228735b76ad871ec2a04e37248.ts' for writing
frame=18753 fps=146 q=28.0 size=N/A time=00:12:30.10 bitrate=N/A speed=5.86x    
[hls @ 0x56516497a480] Opening '/config/data/transcodes/ea9cb613b228735b76ad871ec2a04e37249.ts' for writing
[hls @ 0x56516497a480] Opening '/config/data/transcodes/ea9cb613b228735b76ad871ec2a04e37250.ts' for writing
frame=18856 fps=147 q=28.0 size=N/A time=00:12:34.21 bitrate=N/A speed=5.87x    
[hls @ 0x56516497a480] Opening '/config/data/transcodes/ea9cb613b228735b76ad871ec2a04e37251.ts' for writing
frame=18992 fps=147 q=28.0 size=N/A time=00:12:39.65 bitrate=N/A speed=5.88x    
[hls @ 0x56516497a480] Opening '/config/data/transcodes/ea9cb613b228735b76ad871ec2a04e37252.ts' for writing
[hls @ 0x56516497a480] Opening '/config/data/transcodes/ea9cb613b228735b76ad871ec2a04e37253.ts' for writing
frame=19091 fps=147 q=28.0 size=N/A time=00:12:43.62 bitrate=N/A speed=5.89x    
[hls @ 0x56516497a480] Opening '/config/data/transcodes/ea9cb613b228735b76ad871ec2a04e37254.ts' for writing
frame=19182 fps=147 q=28.0 size=N/A time=00:12:47.25 bitrate=N/A speed= 5.9x    
[hls @ 0x56516497a480] Opening '/config/data/transcodes/ea9cb613b228735b76ad871ec2a04e37255.ts' for writing
frame=19292 fps=148 q=28.0 size=N/A time=00:12:51.66 bitrate=N/A speed=5.91x    
[hls @ 0x56516497a480] Opening '/config/data/transcodes/ea9cb613b228735b76ad871ec2a04e37256.ts' for writing
[hls @ 0x56516497a480] Opening '/config/data/transcodes/ea9cb613b228735b76ad871ec2a04e37257.ts' for writing
frame=19400 fps=148 q=28.0 size=N/A time=00:12:55.97 bitrate=N/A speed=5.92x    
[hls @ 0x56516497a480] Opening '/config/data/transcodes/ea9cb613b228735b76ad871ec2a04e37258.ts' for writing
frame=19492 fps=148 q=28.0 size=N/A time=00:12:59.66 bitrate=N/A speed=5.92x    
[hls @ 0x56516497a480] Opening '/config/data/transcodes/ea9cb613b228735b76ad871ec2a04e37259.ts' for writing
[hls @ 0x56516497a480] Opening '/config/data/transcodes/ea9cb613b228735b76ad871ec2a04e37260.ts' for writing
frame=19608 fps=148 q=28.0 size=N/A time=00:13:04.29 bitrate=N/A speed=5.94x    
[hls @ 0x56516497a480] Opening '/config/data/transcodes/ea9cb613b228735b76ad871ec2a04e37261.ts' for writing
frame=19713 fps=149 q=28.0 size=N/A time=00:13:08.50 bitrate=N/A speed=5.95x    
[hls @ 0x56516497a480] Opening '/config/data/transcodes/ea9cb613b228735b76ad871ec2a04e37262.ts' for writing
frame=19799 fps=149 q=28.0 size=N/A time=00:13:11.93 bitrate=N/A speed=5.95x    
[hls @ 0x56516497a480] Opening '/config/data/transcodes/ea9cb613b228735b76ad871ec2a04e37263.ts' for writing
frame=19890 fps=149 q=28.0 size=N/A time=00:13:15.58 bitrate=N/A speed=5.95x    
[hls @ 0x56516497a480] Opening '/config/data/transcodes/ea9cb613b228735b76ad871ec2a04e37264.ts' for writing


[q] command received. Exiting.

[hls @ 0x56516497a480] Opening '/config/data/transcodes/ea9cb613b228735b76ad871ec2a04e37265.ts' for writing
frame=19932 fps=149 q=-1.0 Lsize=N/A time=00:13:17.24 bitrate=N/A speed=5.95x    
video:51379kB audio:12570kB subtitle:0kB other streams:0kB global headers:0kB muxing overhead: unknown
[libx264 @ 0x565164a39840] frame I:266   Avg QP:18.96  size: 26860
[libx264 @ 0x565164a39840] frame P:5877  Avg QP:22.51  size:  5832
[libx264 @ 0x565164a39840] frame B:13789 Avg QP:26.18  size:   812
[libx264 @ 0x565164a39840] consecutive B-frames:  3.1% 12.4%  4.7% 79.8%
[libx264 @ 0x565164a39840] mb I  I16..4: 16.1%  0.0% 83.9%
[libx264 @ 0x565164a39840] mb P  I16..4:  9.6%  0.0%  0.0%  P16..4: 53.5%  0.0%  0.0%  0.0%  0.0%    skip:36.9%
[libx264 @ 0x565164a39840] mb B  I16..4:  0.5%  0.0%  0.0%  B16..8: 13.3%  0.0%  0.0%  direct: 3.9%  skip:82.3%  L0:32.3% L1:44.9% BI:22.8%
[libx264 @ 0x565164a39840] coded y,uvDC,uvAC intra: 58.5% 61.1% 23.1% inter: 9.1% 7.5% 0.1%
[libx264 @ 0x565164a39840] i16 v,h,dc,p: 44% 23% 15% 17%
[libx264 @ 0x565164a39840] i4 v,h,dc,ddl,ddr,vr,hd,vl,hu: 27% 22%  9%  8%  7%  7%  7%  6%  7%
[libx264 @ 0x565164a39840] i8c dc,h,v,p: 36% 23% 29% 12%
[libx264 @ 0x565164a39840] Weighted P-Frames: Y:2.0% UV:0.7%
[libx264 @ 0x565164a39840] kb/s:527.91